# xmcd CD database file
#
# Track frame offsets:
#	150
#	1608
#	20303
#	35102
#	51732
#	63530
#	81091
#	100585
#	117933
#	131322
#	151249
#	167443
#	181732
#	201316
#	219877
#	234779
#	250062
#	272516
#	293346
#	312567
#	330681
#	354060
#
# Disc length: 4784 seconds
#
# Revision: 0
# Processed by: cddbd v1.5.2PL0 Copyright (c) Steve Scherf et al.
# Submitted via: Feurio! 1.68 - http://www.feurio.com
#
DISCID=1b12ae16
DTITLE=Robbie Williams - Greatest Hits MTV History CD1
DYEAR=1900
DGENRE=
TTITLE0=Intro
TTITLE1=Supreme
TTITLE2=Mack The Knife
TTITLE3=We Are The Champions
TTITLE4=Something Stuoid
TTITLE5=The Road To Mansalay
TTITLE6=Angels
TTITLE7=Millennium
TTITLE8=Rome Munich (Demo)
TTITLE9=Kids
TTITLE10=Toxic
TTITLE11=Mr. Bojangles
TTITLE12=Karma Killer
TTITLE13=Rock Dj
TTITLE14=Better Man 
TTITLE15=Things
TTITLE16=Eternity
TTITLE17=These Dreams
TTITLE18=Win Some Lose Some
TTITLE19=Love Calling Earth
TTITLE20=No Regrets
TTITLE21=Outro
EXTD=
EXTT0=
EXTT1=
EXTT2=
EXTT3=
EXTT4=
EXTT5=
EXTT6=
EXTT7=
EXTT8=
EXTT9=
EXTT10=
EXTT11=
EXTT12=
EXTT13=
EXTT14=
EXTT15=
EXTT16=
EXTT17=
EXTT18=
EXTT19=
EXTT20=
EXTT21=
PLAYORDER=
